<svg width="517" height="246" xmlns="http://www.w3.org/2000/svg"><defs><radialGradient cx="0%" cy="0%" fx="0%" fy="0%" r="70.711%" id="a"><stop stop-color="#FFF" offset="0%"/><stop stop-color="#FFF" stop-opacity=".549" offset="100%"/></radialGradient></defs><g fill="none" fill-rule="evenodd"><path fill="#23A274" d="M439 170h45.555v45.555H439z"/><path fill-opacity=".715" fill="#4A4A4A" style="mix-blend-mode:color-dodge" d="M448.762 205.162v-25.4L439 170v44.924l9.762-9.762z"/><path fill-opacity=".571" fill="#4A4A4A" style="mix-blend-mode:soft-light" d="M483.904 214.884l.02.02h-.02v.02l-.02-.02H439l9.762-9.762h25.38v-25.38l9.762-9.762z"/><path fill="#D8D8D8" style="mix-blend-mode:overlay" d="M474.162 179.762h-25.4L439 170h44.924z"/><path fill="url(#a)" style="mix-blend-mode:overlay" d="M9.762 9.762h25.38v25.38H9.762z" transform="translate(439 170)"/><path fill="#23A274" d="M393 170h45.555v45.555H393z"/><path fill-opacity=".715" fill="#4A4A4A" style="mix-blend-mode:color-dodge" d="M402.762 205.162v-25.4L393 170v44.924l9.762-9.762z"/><path fill-opacity=".571" fill="#4A4A4A" style="mix-blend-mode:soft-light" d="M437.904 214.884l.02.02h-.02v.02l-.02-.02H393l9.762-9.762h25.38v-25.38l9.762-9.762z"/><path fill="#D8D8D8" style="mix-blend-mode:overlay" d="M428.162 179.762h-25.4L393 170h44.924z"/><path fill="url(#a)" style="mix-blend-mode:overlay" d="M9.762 9.762h25.38v25.38H9.762z" transform="translate(393 170)"/><g><path fill="#23A274" d="M347 170h45.555v45.555H347z"/><path fill-opacity=".715" fill="#4A4A4A" style="mix-blend-mode:color-dodge" d="M356.762 205.162v-25.4L347 170v44.924l9.762-9.762z"/><path fill-opacity=".571" fill="#4A4A4A" style="mix-blend-mode:soft-light" d="M391.904 214.884l.02.02h-.02v.02l-.02-.02H347l9.762-9.762h25.38v-25.38l9.762-9.762z"/><path fill="#D8D8D8" style="mix-blend-mode:overlay" d="M382.162 179.762h-25.4L347 170h44.924z"/><path fill="url(#a)" style="mix-blend-mode:overlay" d="M9.762 9.762h25.38v25.38H9.762z" transform="translate(347 170)"/></g><g><path fill="#23A274" d="M347 124h45.555v45.555H347z"/><path fill-opacity=".715" fill="#4A4A4A" style="mix-blend-mode:color-dodge" d="M356.762 159.162v-25.4L347 124v44.924l9.762-9.762z"/><path fill-opacity=".571" fill="#4A4A4A" style="mix-blend-mode:soft-light" d="M391.904 168.884l.02.02h-.02v.02l-.02-.02H347l9.762-9.762h25.38v-25.38l9.762-9.762z"/><path fill="#D8D8D8" style="mix-blend-mode:overlay" d="M382.162 133.762h-25.4L347 124h44.924z"/><path fill="url(#a)" style="mix-blend-mode:overlay" d="M9.762 9.762h25.38v25.38H9.762z" transform="translate(347 124)"/></g><g><path fill="#23A274" d="M347 78h45.555v45.555H347z"/><path fill-opacity=".715" fill="#4A4A4A" style="mix-blend-mode:color-dodge" d="M356.762 113.162v-25.4L347 78v44.924l9.762-9.762z"/><path fill-opacity=".571" fill="#4A4A4A" style="mix-blend-mode:soft-light" d="M391.904 122.884l.02.02h-.02v.02l-.02-.02H347l9.762-9.762h25.38v-25.38L391.904 78z"/><path fill="#D8D8D8" style="mix-blend-mode:overlay" d="M382.162 87.762h-25.4L347 78h44.924z"/><path fill="url(#a)" style="mix-blend-mode:overlay" d="M9.762 9.762h25.38v25.38H9.762z" transform="translate(347 78)"/></g><g><path fill="#23A274" d="M347 32h45.555v45.555H347z"/><path fill-opacity=".715" fill="#4A4A4A" style="mix-blend-mode:color-dodge" d="M356.762 67.162v-25.4L347 32v44.924l9.762-9.762z"/><path fill-opacity=".571" fill="#4A4A4A" style="mix-blend-mode:soft-light" d="M391.904 76.884l.02.02h-.02v.02l-.02-.02H347l9.762-9.762h25.38v-25.38L391.904 32z"/><path fill="#D8D8D8" style="mix-blend-mode:overlay" d="M382.162 41.762h-25.4L347 32h44.924z"/><path fill="url(#a)" style="mix-blend-mode:overlay" d="M9.762 9.762h25.38v25.38H9.762z" transform="translate(347 32)"/></g><g><path fill="#F54A23" d="M281 32h45.555v45.555H281z"/><path fill-opacity=".715" fill="#4A4A4A" style="mix-blend-mode:color-dodge" d="M290.762 67.162v-25.4L281 32v44.924l9.762-9.762z"/><path fill-opacity=".571" fill="#4A4A4A" style="mix-blend-mode:soft-light" d="M325.904 76.884l.02.02h-.02v.02l-.02-.02H281l9.762-9.762h25.38v-25.38L325.904 32z"/><path fill="#D8D8D8" style="mix-blend-mode:overlay" d="M316.162 41.762h-25.4L281 32h44.924z"/><path fill="url(#a)" style="mix-blend-mode:overlay" d="M9.762 9.762h25.38v25.38H9.762z" transform="translate(281 32)"/><path fill="#F54A23" d="M235 32h45.555v45.555H235z"/><path fill-opacity=".715" fill="#4A4A4A" style="mix-blend-mode:color-dodge" d="M244.762 67.162v-25.4L235 32v44.924l9.762-9.762z"/><path fill-opacity=".571" fill="#4A4A4A" style="mix-blend-mode:soft-light" d="M279.904 76.884l.02.02h-.02v.02l-.02-.02H235l9.762-9.762h25.38v-25.38L279.904 32z"/><path fill="#D8D8D8" style="mix-blend-mode:overlay" d="M270.162 41.762h-25.4L235 32h44.924z"/><path fill="url(#a)" style="mix-blend-mode:overlay" d="M9.762 9.762h25.38v25.38H9.762z" transform="translate(235 32)"/><g><path fill="#F54A23" d="M235 78h45.555v45.555H235z"/><path fill-opacity=".715" fill="#4A4A4A" style="mix-blend-mode:color-dodge" d="M244.762 113.162v-25.4L235 78v44.924l9.762-9.762z"/><path fill-opacity=".571" fill="#4A4A4A" style="mix-blend-mode:soft-light" d="M279.904 122.884l.02.02h-.02v.02l-.02-.02H235l9.762-9.762h25.38v-25.38L279.904 78z"/><path fill="#D8D8D8" style="mix-blend-mode:overlay" d="M270.162 87.762h-25.4L235 78h44.924z"/><path fill="url(#a)" style="mix-blend-mode:overlay" d="M9.762 9.762h25.38v25.38H9.762z" transform="translate(235 78)"/></g><g><path fill="#F54A23" d="M235 124h45.555v45.555H235z"/><path fill-opacity=".715" fill="#4A4A4A" style="mix-blend-mode:color-dodge" d="M244.762 159.162v-25.4L235 124v44.924l9.762-9.762z"/><path fill-opacity=".571" fill="#4A4A4A" style="mix-blend-mode:soft-light" d="M279.904 168.884l.02.02h-.02v.02l-.02-.02H235l9.762-9.762h25.38v-25.38l9.762-9.762z"/><path fill="#D8D8D8" style="mix-blend-mode:overlay" d="M270.162 133.762h-25.4L235 124h44.924z"/><path fill="url(#a)" style="mix-blend-mode:overlay" d="M9.762 9.762h25.38v25.38H9.762z" transform="translate(235 124)"/></g><g><path fill="#F54A23" d="M235 170h45.555v45.555H235z"/><path fill-opacity=".715" fill="#4A4A4A" style="mix-blend-mode:color-dodge" d="M244.762 205.162v-25.4L235 170v44.924l9.762-9.762z"/><path fill-opacity=".571" fill="#4A4A4A" style="mix-blend-mode:soft-light" d="M279.904 214.884l.02.02h-.02v.02l-.02-.02H235l9.762-9.762h25.38v-25.38l9.762-9.762z"/><path fill="#D8D8D8" style="mix-blend-mode:overlay" d="M270.162 179.762h-25.4L235 170h44.924z"/><path fill="url(#a)" style="mix-blend-mode:overlay" d="M9.762 9.762h25.38v25.38H9.762z" transform="translate(235 170)"/></g><g><path fill="#F54A23" d="M281 170h45.555v45.555H281z"/><path fill-opacity=".715" fill="#4A4A4A" style="mix-blend-mode:color-dodge" d="M290.762 205.162v-25.4L281 170v44.924l9.762-9.762z"/><path fill-opacity=".571" fill="#4A4A4A" style="mix-blend-mode:soft-light" d="M325.904 214.884l.02.02h-.02v.02l-.02-.02H281l9.762-9.762h25.38v-25.38l9.762-9.762z"/><path fill="#D8D8D8" style="mix-blend-mode:overlay" d="M316.162 179.762h-25.4L281 170h44.924z"/><path fill="url(#a)" style="mix-blend-mode:overlay" d="M9.762 9.762h25.38v25.38H9.762z" transform="translate(281 170)"/></g><g><path fill="#F54A23" d="M189 170h45.555v45.555H189z"/><path fill-opacity=".715" fill="#4A4A4A" style="mix-blend-mode:color-dodge" d="M198.762 205.162v-25.4L189 170v44.924l9.762-9.762z"/><path fill-opacity=".571" fill="#4A4A4A" style="mix-blend-mode:soft-light" d="M233.904 214.884l.02.02h-.02v.02l-.02-.02H189l9.762-9.762h25.38v-25.38l9.762-9.762z"/><path fill="#D8D8D8" style="mix-blend-mode:overlay" d="M224.162 179.762h-25.4L189 170h44.924z"/><path fill="url(#a)" style="mix-blend-mode:overlay" d="M9.762 9.762h25.38v25.38H9.762z" transform="translate(189 170)"/></g><g><path fill="#F54A23" d="M189 32h45.555v45.555H189z"/><path fill-opacity=".715" fill="#4A4A4A" style="mix-blend-mode:color-dodge" d="M198.762 67.162v-25.4L189 32v44.924l9.762-9.762z"/><path fill-opacity=".571" fill="#4A4A4A" style="mix-blend-mode:soft-light" d="M233.904 76.884l.02.02h-.02v.02l-.02-.02H189l9.762-9.762h25.38v-25.38L233.904 32z"/><path fill="#D8D8D8" style="mix-blend-mode:overlay" d="M224.162 41.762h-25.4L189 32h44.924z"/><path fill="url(#a)" style="mix-blend-mode:overlay" d="M9.762 9.762h25.38v25.38H9.762z" transform="translate(189 32)"/></g></g><g><path fill="#2379F5" d="M123 32h45.555v45.555H123z"/><path fill-opacity=".715" fill="#4A4A4A" style="mix-blend-mode:color-dodge" d="M132.762 67.162v-25.4L123 32v44.924l9.762-9.762z"/><path fill-opacity=".571" fill="#4A4A4A" style="mix-blend-mode:soft-light" d="M167.904 76.884l.02.02h-.02v.02l-.02-.02H123l9.762-9.762h25.38v-25.38L167.904 32z"/><path fill="#D8D8D8" style="mix-blend-mode:overlay" d="M158.162 41.762h-25.4L123 32h44.924z"/><path fill="url(#a)" style="mix-blend-mode:overlay" d="M9.762 9.762h25.38v25.38H9.762z" transform="translate(123 32)"/><path fill="#2379F5" d="M31 32h45.555v45.555H31z"/><path fill-opacity=".715" fill="#4A4A4A" style="mix-blend-mode:color-dodge" d="M40.762 67.162v-25.4L31 32v44.924l9.762-9.762z"/><path fill-opacity=".571" fill="#4A4A4A" style="mix-blend-mode:soft-light" d="M75.904 76.884l.02.02h-.02v.02l-.02-.02H31l9.762-9.762h25.38v-25.38L75.904 32z"/><path fill="#D8D8D8" style="mix-blend-mode:overlay" d="M66.162 41.762h-25.4L31 32h44.924z"/><path fill="url(#a)" style="mix-blend-mode:overlay" d="M9.762 9.762h25.38v25.38H9.762z" transform="translate(31 32)"/><g><path fill="#2379F5" d="M77 32h45.555v45.555H77z"/><path fill-opacity=".715" fill="#4A4A4A" style="mix-blend-mode:color-dodge" d="M86.762 67.162v-25.4L77 32v44.924l9.762-9.762z"/><path fill-opacity=".571" fill="#4A4A4A" style="mix-blend-mode:soft-light" d="M121.904 76.884l.02.02h-.02v.02l-.02-.02H77l9.762-9.762h25.38v-25.38L121.904 32z"/><path fill="#D8D8D8" style="mix-blend-mode:overlay" d="M112.162 41.762h-25.4L77 32h44.924z"/><path fill="url(#a)" style="mix-blend-mode:overlay" d="M9.762 9.762h25.38v25.38H9.762z" transform="translate(77 32)"/></g><g><path fill="#2379F5" d="M77 78h45.555v45.555H77z"/><path fill-opacity=".715" fill="#4A4A4A" style="mix-blend-mode:color-dodge" d="M86.762 113.162v-25.4L77 78v44.924l9.762-9.762z"/><path fill-opacity=".571" fill="#4A4A4A" style="mix-blend-mode:soft-light" d="M121.904 122.884l.02.02h-.02v.02l-.02-.02H77l9.762-9.762h25.38v-25.38L121.904 78z"/><path fill="#D8D8D8" style="mix-blend-mode:overlay" d="M112.162 87.762h-25.4L77 78h44.924z"/><path fill="url(#a)" style="mix-blend-mode:overlay" d="M9.762 9.762h25.38v25.38H9.762z" transform="translate(77 78)"/></g><g><path fill="#2379F5" d="M77 124h45.555v45.555H77z"/><path fill-opacity=".715" fill="#4A4A4A" style="mix-blend-mode:color-dodge" d="M86.762 159.162v-25.4L77 124v44.924l9.762-9.762z"/><path fill-opacity=".571" fill="#4A4A4A" style="mix-blend-mode:soft-light" d="M121.904 168.884l.02.02h-.02v.02l-.02-.02H77l9.762-9.762h25.38v-25.38l9.762-9.762z"/><path fill="#D8D8D8" style="mix-blend-mode:overlay" d="M112.162 133.762h-25.4L77 124h44.924z"/><path fill="url(#a)" style="mix-blend-mode:overlay" d="M9.762 9.762h25.38v25.38H9.762z" transform="translate(77 124)"/></g><g><path fill="#2379F5" d="M77 170h45.555v45.555H77z"/><path fill-opacity=".715" fill="#4A4A4A" style="mix-blend-mode:color-dodge" d="M86.762 205.162v-25.4L77 170v44.924l9.762-9.762z"/><path fill-opacity=".571" fill="#4A4A4A" style="mix-blend-mode:soft-light" d="M121.904 214.884l.02.02h-.02v.02l-.02-.02H77l9.762-9.762h25.38v-25.38l9.762-9.762z"/><path fill="#D8D8D8" style="mix-blend-mode:overlay" d="M112.162 179.762h-25.4L77 170h44.924z"/><path fill="url(#a)" style="mix-blend-mode:overlay" d="M9.762 9.762h25.38v25.38H9.762z" transform="translate(77 170)"/></g></g></g></svg>
