<svg viewBox="0 0 1072 250" xmlns="http://www.w3.org/2000/svg"><path d="M1047.16 152.112c-.666 3.36-1.814 6.29-3.434 8.808a19.053 19.053 0 0 1-6.381 6.125c-2.622 1.569-5.896 2.356-9.81 2.356-3.805 0-7.05-.787-9.731-2.356-2.688-1.556-4.838-3.606-6.464-6.125-1.613-2.517-2.793-5.449-3.523-8.808a48.204 48.204 0 0 1-1.087-10.225c0-3.593.342-7.06 1.009-10.408.67-3.358 1.82-6.32 3.437-8.907a19.581 19.581 0 0 1 6.378-6.28c2.62-1.623 5.894-2.445 9.812-2.445 3.803 0 7.015.822 9.64 2.444a19.974 19.974 0 0 1 6.463 6.37c1.685 2.631 2.886 5.628 3.61 8.979a47.787 47.787 0 0 1 1.091 10.246c0 3.458-.34 6.875-1.01 10.226zm22.481-27.27c-1.567-5.643-3.97-10.597-7.216-14.85-3.244-4.248-7.317-7.665-12.24-10.233-4.926-2.578-10.803-3.858-17.625-3.858-5.362 0-10.287 1.058-14.756 3.184-4.475 2.127-8.166 5.54-11.075 10.239h-.327v-11.08H983.75V215.38h23.817V174.27h.338c2.908 4.255 6.634 7.466 11.158 9.641 4.525 2.181 9.48 3.279 14.85 3.279 6.37 0 11.932-1.24 16.692-3.695 4.746-2.458 8.725-5.763 11.906-9.904 3.195-4.141 5.563-8.89 7.13-14.26 1.574-5.373 2.35-10.965 2.35-16.781 0-6.153-.776-12.05-2.35-17.707zm-117.425 27.27c-.676 3.36-1.826 6.29-3.442 8.808a18.938 18.938 0 0 1-6.385 6.125c-2.62 1.569-5.897 2.356-9.808 2.356-3.807 0-7.037-.787-9.722-2.356-2.689-1.556-4.839-3.606-6.463-6.125-1.622-2.517-2.795-5.449-3.525-8.808a47.96 47.96 0 0 1-1.083-10.225c0-3.593.324-7.06.996-10.408.68-3.358 1.818-6.32 3.446-8.907 1.611-2.566 3.742-4.662 6.379-6.28 2.623-1.623 5.886-2.445 9.807-2.445 3.798 0 7.025.822 9.645 2.444a19.978 19.978 0 0 1 6.46 6.37c1.674 2.631 2.875 5.628 3.605 8.979a48.013 48.013 0 0 1 1.085 10.246c0 3.458-.326 6.875-.994 10.226zm15.26-42.12c-3.239-4.248-7.325-7.665-12.247-10.233-4.925-2.578-10.79-3.858-17.609-3.858-5.375 0-10.293 1.058-14.763 3.184-4.485 2.127-8.164 5.54-11.07 10.239h-.342v-11.08h-22.654V215.38h23.838V174.27h.322c2.905 4.255 6.634 7.466 11.166 9.641 4.52 2.181 9.472 3.279 14.842 3.279 6.379 0 11.937-1.24 16.69-3.695 4.754-2.458 8.725-5.763 11.912-9.904 3.192-4.141 5.558-8.89 7.135-14.26 1.554-5.373 2.346-10.965 2.346-16.781 0-6.153-.792-12.05-2.346-17.707-1.577-5.643-3.976-10.597-7.22-14.85zM810.794 138.69l15.6-43.969h.333l15.1 43.969h-31.033zm2.512-73.503l-45.291 119.815h26.506l9.388-26.682h44.798l9.05 26.682h27.353L840.322 65.189h-27.016zm-47.309 81.81a21.586 21.586 0 0 0-6.206-6.886c-2.571-1.84-5.514-3.325-8.806-4.45a103.321 103.321 0 0 0-10.155-2.842c-3.287-.772-6.584-1.5-9.89-2.186-3.244-.676-6.13-1.43-8.648-2.263-2.513-.841-4.547-1.925-6.115-3.279-1.57-1.337-2.346-3.07-2.346-5.198 0-1.79.437-3.216 1.337-4.28a8.979 8.979 0 0 1 3.273-2.437c1.288-.555 2.705-.916 4.275-1.09a41.787 41.787 0 0 1 4.361-.243c4.253 0 7.944.808 11.082 2.43 3.122 1.622 4.861 4.727 5.191 9.312h22.647c-.447-5.367-1.814-9.813-4.11-13.346-2.288-3.519-5.174-6.345-8.637-8.468-3.462-2.125-7.406-3.633-11.831-4.531-4.418-.896-8.971-1.338-13.663-1.338-4.703 0-9.292.42-13.755 1.25-4.482.843-8.507 2.303-12.081 4.368-3.584 2.069-6.459 4.889-8.645 8.472-2.184 3.58-3.275 8.172-3.275 13.76 0 3.804.791 7.027 2.359 9.653 1.55 2.633 3.631 4.805 6.193 6.541 2.58 1.734 5.518 3.138 8.815 4.193a115.196 115.196 0 0 0 10.144 2.776c8.509 1.792 15.138 3.576 19.887 5.372 4.753 1.788 7.13 4.47 7.13 8.054 0 2.125-.5 3.878-1.508 5.279a11.413 11.413 0 0 1-3.775 3.358 17.798 17.798 0 0 1-5.033 1.843c-1.846.395-3.612.593-5.288.593-2.35 0-4.613-.283-6.788-.84-2.187-.56-4.115-1.429-5.791-2.604a13.851 13.851 0 0 1-4.114-4.531c-1.055-1.848-1.597-4.048-1.597-6.628h-22.647c.23 5.818 1.538 10.659 3.95 14.517 2.394 3.86 5.468 6.962 9.222 9.315 3.745 2.345 8.027 4.027 12.841 5.037a71.927 71.927 0 0 0 14.749 1.509c4.923 0 9.761-.48 14.519-1.423 4.752-.953 8.974-2.605 12.666-4.958 3.699-2.345 6.677-5.45 8.977-9.312 2.287-3.865 3.432-8.646 3.432-14.352 0-4.034-.782-7.408-2.347-10.148h.001zm-98.47-74.76h-23.826v26.007H629.28v15.94h14.421v51.185c0 4.368.735 7.888 2.184 10.571 1.456 2.681 3.438 4.764 5.952 6.214 2.518 1.455 5.428 2.43 8.728 2.933 3.29.5 6.8.754 10.482.754 2.358 0 4.755-.06 7.22-.161 2.455-.115 4.69-.333 6.708-.678v-18.46a30.115 30.115 0 0 1-3.529.503 41.788 41.788 0 0 1-3.856.175c-4.023 0-6.71-.679-8.055-2.02-1.335-1.337-2.007-4.025-2.007-8.056v-42.96h17.447v-15.94h-17.447V72.238zm-68.277 79.198c0 1.354-.138 3.142-.42 5.376-.278 2.244-1.034 4.445-2.263 6.628-1.23 2.181-3.138 4.062-5.703 5.621-2.572 1.571-6.207 2.354-10.909 2.354-1.896 0-3.745-.168-5.534-.51-1.792-.33-3.354-.923-4.696-1.759-1.34-.837-2.406-1.986-3.19-3.441-.777-1.454-1.175-3.238-1.175-5.363 0-2.236.398-4.093 1.175-5.541a10.86 10.86 0 0 1 3.109-3.609c1.28-.95 2.792-1.703 4.525-2.268a43.254 43.254 0 0 1 5.287-1.34c1.896-.33 3.803-.618 5.699-.84a74.03 74.03 0 0 0 5.454-.837 38.375 38.375 0 0 0 4.868-1.262c1.51-.505 2.763-1.195 3.773-2.095v8.887-.001zm23.82 14.269v-45.137c0-5.266-1.169-9.485-3.525-12.668-2.344-3.192-5.365-5.678-9.051-7.469-3.697-1.788-7.782-2.994-12.253-3.608a97.187 97.187 0 0 0-13.25-.92 72.65 72.65 0 0 0-14.338 1.424c-4.765.95-9.034 2.548-12.84 4.78a28.444 28.444 0 0 0-9.39 8.894c-2.468 3.691-3.864 8.335-4.2 13.93h23.82c.448-4.7 2.02-8.06 4.706-10.071 2.682-2.015 6.368-3.016 11.071-3.016 2.121 0 4.104.14 5.954.417 1.841.282 3.465.834 4.865 1.677 1.4.84 2.517 2.01 3.352 3.525.838 1.51 1.259 3.555 1.259 6.122.111 2.468-.619 4.331-2.178 5.62-1.57 1.293-3.692 2.275-6.377 2.937-2.685.678-5.763 1.183-9.23 1.508-3.533.354-7.055.804-10.564 1.35a99.995 99.995 0 0 0-10.65 2.266c-3.522.945-6.663 2.379-9.4 4.273-2.742 1.912-4.977 4.452-6.716 7.642-1.73 3.19-2.595 7.25-2.595 12.165 0 4.475.754 8.333 2.263 11.575 1.51 3.253 3.606 5.926 6.293 8.055 2.687 2.126 5.815 3.695 9.394 4.705 3.574 1.004 7.435 1.509 11.577 1.509 5.368 0 10.625-.786 15.763-2.345 5.147-1.578 9.625-4.309 13.429-8.23.109 1.437.303 2.866.582 4.28a34.27 34.27 0 0 0 1.094 4.108h24.16c-1.118-1.78-1.906-4.467-2.35-8.053-.452-3.578-.675-7.319-.675-11.245zm-98.14-59.994c-2.345-3.077-5.563-5.479-9.639-7.218-4.087-1.725-9.316-2.59-15.687-2.59-4.475 0-9.059 1.142-13.763 3.44-4.694 2.287-8.553 5.954-11.571 10.992h-.504V65.188h-23.822v119.814h23.822v-45.475c0-8.837 1.453-15.182 4.363-19.048 2.905-3.855 7.602-5.788 14.092-5.788 5.7 0 9.673 1.763 11.91 5.29 2.238 3.52 3.355 8.865 3.355 16.022v49h23.824V131.64c0-5.366-.48-10.259-1.427-14.686-.952-4.412-2.602-8.163-4.953-11.244zm-125.817 42.041h-.332L378.315 65.19h-24.663l-20.803 81.554h-.334l-18.957-81.555h-26.335l31.705 119.815h26.675l19.96-81.557h.336l20.299 81.557h26.17L444.58 65.188h-25.834l-19.633 82.563zm-218.375 1.885c-3.084-1.543-18.25-9.005-21.076-10.033-2.827-1.03-4.883-1.545-6.94 1.542-2.056 3.089-7.966 10.038-9.766 12.093-1.8 2.062-3.597 2.318-6.682.775-3.084-1.545-13.023-4.803-24.804-15.31-9.169-8.178-15.359-18.28-17.158-21.37-1.8-3.084-.192-4.753 1.353-6.292 1.387-1.381 3.084-3.603 4.625-5.402 1.542-1.804 2.057-3.088 3.086-5.149 1.028-2.056.513-3.86-.257-5.402-.772-1.545-6.94-16.725-9.513-22.9-2.501-6.013-5.043-5.2-6.937-5.294-1.796-.093-3.856-.111-5.913-.111-2.055 0-5.396.775-8.225 3.86-2.825 3.087-10.794 10.55-10.794 25.73s11.053 29.85 12.595 31.908c1.542 2.057 21.75 33.213 52.688 46.572 7.36 3.177 13.106 5.075 17.585 6.497 7.388 2.346 14.113 2.015 19.425 1.223 5.928-.887 18.25-7.463 20.82-14.668 2.57-7.205 2.57-13.379 1.799-14.667-.77-1.285-2.826-2.057-5.913-3.6l.002-.002zm-56.277 76.842h-.042c-18.41-.007-36.468-4.955-52.22-14.303l-3.746-2.221-38.832 10.185 10.365-37.859-2.44-3.882c-10.27-16.337-15.694-35.218-15.687-54.6.023-56.57 46.05-102.593 102.642-102.593 27.404.009 53.163 10.696 72.535 30.089 19.371 19.392 30.033 45.171 30.023 72.585-.025 56.572-46.05 102.6-102.598 102.6v-.001zM124.46.355C56.42.355 1.046 55.728 1.019 123.786c-.009 21.758 5.675 42.995 16.475 61.713L-.02 249.466l65.44-17.162c18.029 9.831 38.329 15.012 58.99 15.02h.05c68.032 0 123.412-55.375 123.438-123.438.012-32.981-12.814-63.997-36.12-87.328C188.474 13.226 157.479.37 124.459.355z" fill-rule="nonzero" fill="#455A64"/></svg>
