<svg version="1" xmlns="http://www.w3.org/2000/svg" viewBox="0 0 227 227"><path d="M211 13.2c-3 .4-8 1-11 1.3-3 .4-6.2.8-7 1-.8.3-4 .7-7 1-8.2.9-8.9 1-9.9 2.1-.8.7-3.1 11.5-10.5 49.4-1.3 6.3-9.6 50.1-10 52.6-.3 1.6-1.9 10.8-3.5 20.4-3.6 20.5-3.6 20.9-6.5 41-1.3 8.5-2.1 15.7-2 15.9.2.2 2.3-.2 4.6-.8 4.5-1.2 5.9-1.5 14.3-3.1 12-2.3 29.5-3.8 46.2-3.9l9.2-.1-.5-2.8c-.7-4.7-1.4-8.6-1.9-11.2-.3-1.4-.6-4.9-.6-7.8-.1-2.9-.7-5.6-1.3-5.9-1.2-.8-23.4-.5-24.7.3-1.1.7-1.1.5.5-9.6 2.6-15.4 6.3-34.4 10-51 1.4-6.3 2.7-12.6 3-14 .7-4 16.3-71.2 17.2-74.2.5-1.8.5-1.8-8.6-.6zM142.5 23.1c-5.8 1-11.6 1.9-15 2.4-1.6.3-3.9.6-5 .9-1.1.2-3.8.7-6 1-2.8.5-4.1 1.2-4.2 2.4-.2 2.1-3.7 21.9-5.9 33.2-.9 4.7-1.8 9.6-2 11-.3 1.4-1.6 8.1-2.9 15-1.3 6.9-2.6 13.6-2.9 15-.2 1.4-.9 4.5-1.5 7-.5 2.5-1.3 6.1-1.6 8-.5 2.7-7.3 36.3-9 44-2.1 9.5-5.1 22.3-7.1 30.2-2.6 10.3-2.8 12.2-1.6 11.5.4-.3 3-.8 5.7-1.1 2.8-.4 6.1-.9 7.5-1.1 4-.6 10.9-1.3 19.3-2.1 4.2-.3 7.7-.9 7.8-1.3.1-.7.5-2.9 1.4-8.1.4-1.9.9-4.6 1.2-6 .2-1.4 1-5.7 1.8-9.5.8-3.9 1.9-9.7 2.5-13 1.3-7.5 1.4-8.1 5.5-29.9 1.9-10 3.7-19.6 4-21.5.3-1.9.7-3.7.9-4 .2-.3.7-2.2 1-4.1.3-1.9 2.8-15 5.6-29 5.1-26 5.6-28.3 6.5-33.5.3-1.7.8-3.7 1-4.5.2-.8.7-3.1 1-5 .3-1.9.8-4.7 1.1-6.3.5-2.5.3-2.7-2.3-2.5-1.5.1-4.6.5-6.8.9zM77.4 32.9c-.2.3-15.2.6-33.2.7l-32.7.2-.5 8.3c-.3 4.6-.5 11.8-.5 15.9 0 8.8-.1 8.7 13.6 8.9 6 .1 8.8.5 9.2 1.3.2.7-.8 9.4-2.4 19.3-3.2 20.9-3 19.5-7.4 43.5-1.9 10.2-3.6 19.6-3.9 21-.2 1.4-1.3 7-2.5 12.5-1.1 5.5-2.2 11.1-2.5 12.5-.2 1.4-1.6 8.3-3.1 15.5-1.5 7.1-2.9 14.1-3.1 15.5-.3 1.4-.7 3.3-1 4.3-.5 1.6 0 1.7 4.3 1.2 2.6-.3 5.9-.7 7.3-1 1.4-.3 4.1-.7 6-1 1.9-.3 4.9-.8 6.5-1.1 3-.5 3.8-.6 12.9-1.9 6.4-.8 8.6-2 8.7-4.8.2-2.6.2-2.9 2.4-18.2.9-6.6 1.8-12.2 2-12.5.1-.3.6-3 .9-6 .4-3 .8-6.6 1.1-8 1-5.7 3.7-22.7 4.1-26 .2-1.9.9-6 1.4-9 .5-3 1.2-7.2 1.6-9.4.3-2.1.7-4.6.9-5.5.1-.9.6-3.6 1-6.1.4-2.5.9-5.4 1.1-6.5.4-1.9 2.9-14.5 3.9-19.5 1.6-8.2 1.1-7.7 8-8.5l6.3-.6 1.1-4.7c2.5-11.5 2.6-12.1 3.6-21.7.4-3.9.8-7.5.9-8 .1-1-15.1-1.5-16-.6z"/></svg>
